<svg id="Layer_1" data-name="Layer 1" xmlns="http://www.w3.org/2000/svg" viewBox="0 0 114.14 189.23"><defs><style>.cls-1{fill:#ff5d18;}</style></defs><title>vector1</title><path class="cls-1" d="M-214.63,593.84l-.28-1.88c-.19-1.25-.39-2.5-.61-3.74-.11-.49-.24-1-.37-1.45-.51.24-.29,0,0-.15l-.57-2.07-.53-1.83c-.17-.61-.43-1.18-.65-1.77-.46-1.17-.93-2.33-1.41-3.49a59.69,59.69,0,0,0-7.54-12.2c-1.39-1.89-2.92-3.45-4.41-5.12-.76-.81-1.54-1.53-2.3-2.3s-1.55-1.53-2.33-2.2c-1.57-1.39-3.15-2.78-4.73-4s-3.17-2.47-4.75-3.65c-1.86-1.36-3.72-2.65-5.55-3.9,15.93-20.54,33.33-41.1,48.51-64.51l-26.9-17.33c-7.24,11.15-15.34,22.05-23.84,32.95S-270.3,517-279,528.42a410.25,410.25,0,0,0-25,36l-2.87,4.82-.71,1.2-.81,1.5c-.53,1-1.11,2-1.57,3.07a63.25,63.25,0,0,0-4.62,13.12,59,59,0,0,0,.21,28.67,49.9,49.9,0,0,0,6.25,14.15A44.87,44.87,0,0,0-297,642.77a44.65,44.65,0,0,0,14.71,7,51.5,51.5,0,0,0,14.9,1.66c-1.28-1.23,1.88-1.06,0,0h.26a63.37,63.37,0,0,0,13.84-2.13l3.23-.9c1.13-.37,2.35-.82,3.51-1.24s2.32-1,3.48-1.5l1.71-.81,1.68-.94a49.54,49.54,0,0,0,12.13-9.6,49.73,49.73,0,0,0,8.54-13,52.72,52.72,0,0,0,4.19-14.61l.36-3.72c.07-1.24.07-2.47.09-3.71s-.09-2.44-.14-3.66C-214.54,595.06-214.58,594.45-214.63,593.84Zm-88.14,25.59c0-.26.47-.21.75-.27C-302,619.42-302.47,619.37-302.77,619.43Zm1.14-24.2c-.2-.14.27-.34.37-.27S-301.53,595.31-301.63,595.23Zm1.13-6.38a.19.19,0,0,1,.37,0A.19.19,0,0,1-300.5,588.85Zm1.12-3.46c-.19-.14.28-.34.38-.27S-299.28,585.47-299.38,585.39Zm50.07-20.47c.2.13-.27.34-.37.26S-249.41,564.84-249.31,564.92Zm-.37-1.33v.53c-.81.12-.72-.38-.76-.8C-250.13,563.37-250.06,563.59-249.68,563.59Zm-2.64,8.77c0,.26-.46.21-.75.27C-253.06,572.37-252.61,572.42-252.32,572.36Zm-3.38-8.77c.71-.5.68.16,1.88,0C-254,564.3-255.83,564.83-255.7,563.59Zm1.12,14.89v.8h-1.12c-.11-.43.35-.46.37-.8Zm0-5.59h.76v.54h-.76Zm.76,5.06c.19.13-.27.33-.38.26S-253.93,577.87-253.82,578Zm-3.77-4.26c-.19-.13.27-.33.38-.26S-257.49,573.77-257.59,573.69Zm-2.26,0c-.31.75.53.69.38,1.33H-261C-260.41,574.25-261.53,573.81-259.85,573.69Zm-1.88-9.3c.09-.34.75-.27.76,0C-261.14,564.77-261.3,564.36-261.73,564.39Zm-5.65,4v.54C-269.44,569.91-268.9,567.3-267.38,568.37Zm-7.53,5.06h1.13V574C-274.53,574.05-274.95,573.9-274.91,573.43Zm1.13,2.12v.54h-.75v-.54Zm15-36.44c-.2-.14.27-.34.38-.27S-258.63,539.18-258.74,539.11ZM-213.18,492c1.26-.27.58.83.75,1.33C-213.25,493.33-213.24,492.7-213.18,492Zm-3-15.15c.2.13-.27.33-.37.26S-216.3,476.81-216.2,476.89Zm-4.49-6.77c.19.14-.27.34-.38.27S-220.8,470.05-220.69,470.12Zm-1.15,25.38h.75V496h-.75Zm-2.64-14.09c.2.13-.27.34-.37.26S-224.58,481.33-224.48,481.41Zm-3,29.78h-.76v-.53h.76ZM-229,486.46h.75v.79c-.6.08-.64-.24-1.12-.26C-229.3,486.77-229,486.72-229,486.46Zm-1.13,29.25c-1.26.64.91-.89,0,0Zm-6.39-26.06c-.17.39-.33,0-.76,0C-237.19,489.31-236.53,489.38-236.52,489.65Zm-1.89,9.57h.75v.53h-.75Zm-6.4,24.73h.75v.53h-.75Zm-3-1.33c1,0,.89,1,.37,1.33C-248.41,523.92-248.34,523-247.82,522.62Zm-3-1.33c.19.14-.28.34-.38.27S-250.94,521.22-250.83,521.29Zm-5.27,9.57c-.2-.13.27-.34.37-.26S-256,530.94-256.1,530.86Zm.37-14.36c0,.26-.46.21-.75.27C-256.47,516.51-256,516.56-255.73,516.5Zm-.75,12c.66.06.86.46.75,1.06C-256.9,529.66-257.08,528.87-256.48,528.47Zm-.38-6.65c0,.26-.46.21-.75.27C-257.6,521.83-257.15,521.88-256.86,521.82Zm-1.88-12.76h.76c.1.43-.36.46-.38.8C-259.15,509.71-259.16,509.44-258.74,509.06Zm-4.89,24.2c.19.14-.28.34-.38.26S-263.74,533.19-263.63,533.26Zm-2.64-1.6c.68,0,.79-.32,1.5-.26v1.06C-265.75,532.53-266.39,532.36-266.27,531.66Zm-4.89,15.69a.19.19,0,0,1-.38,0A.19.19,0,0,1-271.16,547.35Zm-.76-11.17c.2.14-.27.34-.37.27S-272,536.11-271.92,536.18Zm-4.89-4.78a.19.19,0,0,1-.37,0A.19.19,0,0,1-276.81,531.4ZM-280.55,562c-1.73-.18.3-1.61,0,0Zm-1.89,10.11h.76v.53h-.76Zm-3-33c1.09.32,3,1.08,1.88,2.12C-284.8,540.93-285.61,540.36-285.47,539.11Zm2.28,25.81c-.09.33-.75.26-.75,0C-283.61,564.75-283.27,564.6-283.19,564.92Zm-4.14,14.89a.19.19,0,0,1-.38,0A.19.19,0,0,1-287.33,579.81Zm0,43.08c0,.25-.46.2-.75.26C-288.07,622.9-287.62,623-287.33,622.89Zm-.38-40.42c.2.13-.27.34-.37.26S-287.81,582.39-287.71,582.47ZM-294.86,562c.09-.33.75-.26.75,0C-294.27,562.38-294.44,562-294.86,562Zm2.26,25.53a.19.19,0,0,1,.37,0A.19.19,0,0,1-292.6,587.52Zm.73,53c.09-.33.75-.27.75,0C-291.28,640.94-291.45,640.52-291.87,640.55Zm.77-36.54c-1.42.23-1.33-1.19-.75-1.6C-291.32,602.81-290.45,603.56-291.1,604Zm1.51-43.08c-.19-.14.28-.34.38-.27S-289.48,561-289.59,560.93Zm1.13,66.48c1.09.32,3,1.08,1.88,2.12C-287.79,629.23-288.6,628.66-288.46,627.41Zm1.86,12.08c-.19-.14.28-.34.38-.27S-286.5,639.56-286.6,639.49Zm1.15-56.22c-1.26.64.91-.9,0,0Zm0,25.52c-.19-.14.28-.34.38-.27S-285.34,608.86-285.45,608.79Zm4.5,34.68c.33-.16.67-.32.75,0C-280.29,643.81-280.95,643.74-280.95,643.47Zm.78-23.77a.19.19,0,0,1,.37,0A.19.19,0,0,1-280.17,619.7Zm2.61,20.85c-1.73-.18.3-1.61,0,0Zm2.28-15.8c-.2-.14.27-.34.37-.27S-275.18,624.82-275.28,624.75Zm.75,10.9a.19.19,0,0,1,.38,0A.19.19,0,0,1-274.53,635.65Zm6.77-14.89c-1,.07-1.61-.1-1.5-.8.68,0,.8-.33,1.5-.26Zm.76,1.06c-.2-.14.27-.34.38-.27S-266.9,621.89-267,621.82Zm2.61,25.64c-2.06,1-1.52-1.6,0-.53Zm2.66-20.05c-.19-.14.28-.34.38-.27S-261.62,627.48-261.73,627.41Zm2.64-8.25c-.2-.13.27-.34.37-.26S-259,619.23-259.09,619.16Zm.35,23.78c.09-.33.75-.27.76,0C-258.15,643.33-258.31,642.92-258.74,642.94Zm6-.8c.71-.49.67.16,1.88,0C-251,642.86-252.84,643.39-252.71,642.14Zm2.62-30.72a.8.8,0,0,1-.35.83.76.76,0,0,1-.27,0c-.14.16-.26.33-.4.48a17.31,17.31,0,0,1-4.34,3.39l-.61.37-.67.3a11,11,0,0,1-1.35.58l-.62.23a1.37,1.37,0,0,1,0,.28,1.57,1.57,0,0,1-.64,0l-.17.06-1.85.51a32,32,0,0,1-6.93,1.1,19.75,19.75,0,0,1-5.66-.58,12.39,12.39,0,0,1-4.19-2,12.69,12.69,0,0,1-3.18-3.4,17.46,17.46,0,0,1-2.19-5,27.06,27.06,0,0,1,0-13,31.68,31.68,0,0,1,2.37-6.7c.22-.56.56-1.07.83-1.61l.43-.82.63-1.06,2.52-4.24c2.26-3.73,4.65-7.42,7.13-11.08,1.93,1.29,3.79,2.57,5.55,3.87,5,3.66,9.37,7.43,12.29,11.25a28.72,28.72,0,0,1,3.54,5.64c.17.47.36.94.55,1.4a4.65,4.65,0,0,1,.28.7l.17.71.41,1.4c.05.49.12,1,.21,1.46l.13.73.05.79c0,.53.11,1.08.06,1.59l0,1.56c-.06.51-.11,1-.15,1.52a20.33,20.33,0,0,1-1.59,5.56A17.93,17.93,0,0,1-250.09,611.42Zm2.29.83h.76v.53h-.76Zm.35,29.63c.31,0,.38.27.76.26v.54C-247.5,642.8-247.41,642.3-247.45,641.88Zm.76,1.86c-.19-.14.27-.34.37-.27S-246.59,643.81-246.69,643.74Zm6-55.69h-.75v-.53h.75Zm1.14-10.1c-.18.38-.33,0-.76,0C-240.18,577.61-239.52,577.68-239.51,578Zm0,56.9c.18,0,.83.37.75.53C-239.27,636.35-240.51,635.07-239.51,634.85Zm0-11.17c0-.26.45-.2.75-.26C-238.77,623.68-239.22,623.62-239.51,623.68Zm4.51-6.38a.9.9,0,0,1-.75-1.59,2.3,2.3,0,0,0,1.13.26A1.34,1.34,0,0,1-235,617.3Zm1.89-9.84c-.09.42-.44,0-.39-.26C-233.41,606.78-233.06,607.19-233.11,607.46Zm0-3.45c-1.27.64.9-.9,0,0Zm1.12-29.25h.75v.79c-.6.08-.65-.25-1.12-.26C-232.29,575.07-232,575-232,574.76Zm.75,24.19h.76v.54h-.76Zm1.89,24.2c-.76.09-1.18,0-1.13-.53h1.13Zm1.51-53.18c-.2-.14.27-.34.37-.27S-227.74,570.05-227.84,570Zm.37,44.41c-.2-.14.27-.34.38-.27S-227.36,614.45-227.47,614.38Zm3.39-30h-.76v-.53h.76Zm4.52,27.92c-.2-.14.27-.34.37-.27S-219.46,612.32-219.56,612.25Z" transform="translate(316.32 -462.24)"/></svg>